# xmcd
#
# Track frame offsets:
#	150
#	13205
#	28540
#	44840
#	59220
#	76075
#	91762
#	107325
#	120872
#	138062
#	152007
#	167417
#
# Disc length: 2411 seconds
#
# Revision: 0
# Processed by: cddbd v1.5PL3 Copyright (c) Steve Scherf et al.
# Submitted via: dBpowerAMP V4.0
#
DISCID=8809690c
DTITLE=Emilio Navaira y su Grupo Rio - Pienso En Ti
DYEAR=1992
DGENRE=Latin
TTITLE0=Pienso En Ti
TTITLE1=Tu
TTITLE2=Como Le Haré
TTITLE3=Mil, Dos, Tres Mil Veces
TTITLE4=Mi Destino
TTITLE5=Remedio De Amor
TTITLE6=Sensaciones
TTITLE7=Esta Vez No Volveré
TTITLE8=Fíjate Mamá
TTITLE9=Polka De Pedro
TTITLE10=Besitos Lindos
TTITLE11=No Se Por Que
EXTD=
EXTT0=
EXTT1=
EXTT2=
EXTT3=
EXTT4=
EXTT5=
EXTT6=
EXTT7=
EXTT8=
EXTT9=
EXTT10=
EXTT11=
PLAYORDER=
